<svg xmlns="http://www.w3.org/2000/svg" viewBox="0 0 256 256">
  <defs>
    <linearGradient id="g" x1="0" x2="1" y1="0" y2="1">
      <stop offset="0%" stop-color="#0ea5e9"/>
      <stop offset="100%" stop-color="#22c55e"/>
    </linearGradient>
  </defs>
  <rect width="256" height="256" rx="48" fill="#ffffff"/>
  <g fill="#0f172a" transform="translate(256,0) scale(-1,1)">
    <path d="M128 40c-6 0-10 4-10 10v8c-18 3-32 14-36 32a10 10 0 1 0 20 4c3-12 12-18 26-18 16 0 26 6 26 16 0 10-10 14-27 18-23 6-47 12-47 38 0 20 16 34 38 36v8a10 10 0 0 0 20 0v-8c17-3 30-13 34-28a10 10 0 1 0-19-6c-3 10-12 16-26 16-18 0-28-7-28-18 0-9 9-14 28-18 22-5 46-12 46-38 0-20-16-34-37-36v-8c0-6-4-10-10-10z"/>
  </g>
</svg>
